<svg id="visual" viewBox="0 0 900 600" width="900" height="600" xmlns="http://www.w3.org/2000/svg" xmlns:xlink="http://www.w3.org/1999/xlink" version="1.1"><rect x="0" y="0" width="900" height="600" fill="#e46889"></rect><defs><linearGradient id="grad1_0" x1="33.3%" y1="0%" x2="100%" y2="100%"><stop offset="20%" stop-color="#e46889" stop-opacity="1"></stop><stop offset="80%" stop-color="#e46889" stop-opacity="1"></stop></linearGradient></defs><defs><linearGradient id="grad2_0" x1="0%" y1="0%" x2="66.7%" y2="100%"><stop offset="20%" stop-color="#e46889" stop-opacity="1"></stop><stop offset="80%" stop-color="#e46889" stop-opacity="1"></stop></linearGradient></defs><g transform="translate(900, 0)"><path d="M0 486.7C-69.6 484.1 -139.1 481.5 -184.8 446.2C-230.6 411 -252.5 343.1 -298.4 298.4C-344.3 253.7 -414.3 232.1 -449.7 186.3C-485.1 140.4 -485.9 70.2 -486.7 0L0 0Z" fill="#961d48"></path></g><g transform="translate(0, 600)"><path d="M0 -486.7C53.6 -452.8 107.3 -418.9 164.6 -397.3C221.8 -375.6 282.7 -366.2 333.8 -333.8C384.8 -301.3 425.9 -245.7 449.7 -186.3C473.5 -126.8 480.1 -63.4 486.7 0L0 0Z" fill="#961d48"></path></g></svg>